<svg xmlns="http://www.w3.org/2000/svg" viewBox="0 0 153.74 30.74"><g id="Layer_2" data-name="Layer 2"><g id="She_Codes_copy" data-name="She{Codes) copy"><path d="M7.08,0c4.6,0,7,2.75,7,7.56V8.5H9.58V7.26c0-2.15-.86-3-2.37-3s-2.36.82-2.36,3,1,3.82,4,6.52c3.95,3.48,5.19,6,5.19,9.41,0,4.81-2.4,7.55-7,7.55S0,28,0,23.19V21.34H4.47v2.15c0,2.14.94,2.92,2.44,2.92s2.45-.78,2.45-2.92-.94-3.82-4-6.53C1.37,13.48.13,11,.13,7.56.13,2.75,2.49,0,7.08,0Z" fill="#8246af"></path><path d="M21.51,30.4H16.79V.34h4.72V13.23h5.37V.34h4.81V30.4H26.88V17.52H21.51Z" fill="#8246af"></path><path d="M39.84,13h6.49V17.3H39.84v8.81H48V30.4H35.12V.34H48v4.3H39.84Z" fill="#8246af"></path><path d="M56.37,19.19l.22,4.3c.13,2.36.77,3.05,2.27,3.05h.69V30.4H57.14c-2.66,0-4.55-1.5-4.76-4.77L52,19.88c-.13-2-.56-2.58-2.37-2.58V13.44c1.81,0,2.24-.6,2.37-2.58l.34-5.75c.21-3.26,2.1-4.77,4.76-4.77h2.41V4.21h-.69c-1.5,0-2.14.69-2.27,3.05l-.22,4.29c-.08,1.59-.6,3.26-2.79,3.82C55.77,15.93,56.29,17.6,56.37,19.19Z" fill="#f9a426"></path><path d="M75.65,19.19v4c0,4.81-2.4,7.55-7,7.55s-7-2.74-7-7.55V7.56c0-4.81,2.4-7.56,7-7.56s7,2.75,7,7.56v2.92H71.18V7.26c0-2.15-.94-3-2.44-3s-2.45.82-2.45,3V23.49c0,2.14.94,2.92,2.45,2.92s2.44-.78,2.44-2.92v-4.3Z" fill="#f9a426"></path><path d="M78.14,7.56C78.14,2.75,80.67,0,85.31,0s7.17,2.75,7.17,7.56V23.19c0,4.81-2.53,7.55-7.17,7.55S78.14,28,78.14,23.19Zm4.72,15.93c0,2.14,1,3,2.45,3s2.45-.82,2.45-3V7.26c0-2.15-1-3-2.45-3s-2.45.82-2.45,3Z" fill="#f9a426"></path><path d="M95.53.34H103c4.72,0,7,2.62,7,7.43V23c0,4.81-2.32,7.43-7,7.43H95.53Zm4.72,4.3V26.11h2.66c1.5,0,2.41-.78,2.41-2.92V7.56c0-2.15-.91-2.92-2.41-2.92Z" fill="#f9a426"></path><path d="M117.76,13h6.49V17.3h-6.49v8.81h8.16V30.4H113V.34h12.88v4.3h-8.16Z" fill="#f9a426"></path><path d="M135.2,0c4.59,0,7,2.75,7,7.56V8.5h-4.46V7.26c0-2.15-.86-3-2.36-3s-2.37.82-2.37,3,.95,3.82,4,6.52c3.95,3.48,5.2,6,5.2,9.41,0,4.81-2.41,7.55-7,7.55s-7-2.74-7-7.55V21.34h4.47v2.15c0,2.14.94,2.92,2.44,2.92s2.45-.78,2.45-2.92-.94-3.82-4-6.53c-3.95-3.48-5.2-6-5.2-9.4C128.24,2.75,130.6,0,135.2,0Z" fill="#f9a426"></path><path d="M147,11.55l-.21-4.29c-.13-2.36-.77-3-2.28-3h-.68V.34h2.4c2.66,0,4.55,1.51,4.77,4.77l.34,5.75c.13,2,.56,2.58,2.36,2.58V17.3c-1.8,0-2.23.61-2.36,2.58L151,25.63c-.22,3.27-2.11,4.77-4.77,4.77h-2.4V26.54h.68c1.51,0,2.15-.69,2.28-3.05l.21-4.3c.09-1.59.61-3.26,2.8-3.82C147.65,14.81,147.13,13.14,147,11.55Z" fill="#f9a426"></path></g></g></svg>